<svg data-v-fd4cf2fb="" xmlns="http://www.w3.org/2000/svg" width="20" height="20" fill="none" class="net-icon"><path fill="currentColor" fill-opacity=".92" fill-rule="evenodd" d="M9.5 1.575A7.394 7.394 0 0 0 2.073 9c0 4.125 3.3 7.425 7.425 7.425s7.425-3.3 7.425-7.425-3.3-7.425-7.425-7.425m5.4 4.575h-1.95c-.15-.825-.376-1.575-.676-2.175l-.225-.45c1.2.525 2.175 1.425 2.85 2.625M15.573 9c0 .6-.075 1.125-.225 1.65H13.1c.075-.525.075-1.05.075-1.65 0-.525 0-1.05-.075-1.5h2.25c.15.45.225.975.225 1.5m-5.4 5.7c-.3.225-.525.375-.675.375a.89.89 0 0 1-.675-.375c-.3-.225-.525-.675-.825-1.2-.225-.45-.375-.975-.525-1.5h3.975c-.15.525-.3 1.05-.525 1.5-.15.525-.45.975-.75 1.2M7.25 10.65c-.075-.525-.075-1.05-.075-1.65 0-.525 0-1.05.075-1.5h4.5c.075.45.075.975.075 1.5 0 .6 0 1.125-.075 1.65zM3.424 9c0-.525.075-1.05.225-1.5H5.9c-.075.45-.075.975-.075 1.5 0 .6 0 1.125.075 1.65H3.65A6 6 0 0 1 3.424 9m5.4-5.7c.225-.3.45-.375.675-.375s.45.075.675.375c.3.225.6.675.825 1.2.225.45.375 1.05.525 1.65h-4.05c.15-.6.3-1.2.525-1.65.225-.525.525-.975.825-1.2m-1.8.15c-.075.15-.225.3-.3.525-.225.6-.45 1.35-.6 2.175H4.1q1.012-1.8 2.925-2.7M4.25 12h1.875c.15.75.375 1.425.6 2.025l.225.45c-1.125-.45-2.1-1.35-2.7-2.475m7.725 2.55.225-.45c.3-.6.45-1.275.6-2.025h1.95a5.97 5.97 0 0 1-2.775 2.475" clip-rule="evenodd"></path></svg>