                <svg width="24" height="24" viewBox="0 0 24 24" fill="none" xmlns="http://www.w3.org/2000/svg">
                  <path fill-rule="evenodd" clip-rule="evenodd" d="M17.5385 2.66602C17.9208 2.66602 18.2308 2.97598 18.2308 3.35832V5.43525H20.3077C20.69 5.43525 21 5.74521 21 6.12755C21 6.5099 20.69 6.81986 20.3077 6.81986H18.2308V8.89678C18.2308 9.27913 17.9208 9.58909 17.5385 9.58909C17.1561 9.58909 16.8462 9.27913 16.8462 8.89678V6.81986H14.7692C14.3869 6.81986 14.0769 6.5099 14.0769 6.12755C14.0769 5.74521 14.3869 5.43525 14.7692 5.43525H16.8462V3.35832C16.8462 2.97598 17.1561 2.66602 17.5385 2.66602ZM12 4.05063C12.3823 4.05063 12.6923 4.36059 12.6923 4.74294C12.6923 5.12529 12.3823 5.43525 12 5.43525H4.38462V15.5331L7.55939 12.3583C8.10012 11.8176 8.9768 11.8176 9.51757 12.3583L16.4406 19.2814H18.2308V11.666C18.2308 11.2837 18.5407 10.9737 18.9231 10.9737C19.3054 10.9737 19.6154 11.2837 19.6154 11.666V19.2814C19.6154 20.0461 18.9954 20.666 18.2308 20.666H4.38462C3.61991 20.666 3 20.0461 3 19.2814V5.43525C3 4.67054 3.61992 4.05063 4.38462 4.05063H12ZM8.83218 13.6312C8.66996 13.4689 8.40696 13.4689 8.24474 13.6312L4.38462 17.4913V19.2814H14.4824L8.83218 13.6312Z" fill="currentColor"/>
                </svg>